<svg xmlns="http://www.w3.org/2000/svg" width="1350" height="442" viewBox="0 0 1350 442">
<rect width="100%" height="100%" fill="#0b1020"/>
<text x="235" y="34" fill="#f8fafc" font-size="24" font-family="Inter, Arial" font-weight="700">Case pass heatmap</text>
<text x="235" y="58" fill="#94a3b8" font-size="13" font-family="Inter, Arial">Green = full credit, amber = partial, red = fail/error. Labels are wrapped on purpose so they stay readable on GitHub.</text>
<line x1="235" y1="120" x2="1309" y2="120" stroke="#243044"/>
<text x="285.0" y="74" fill="#cbd5e1" font-size="11" font-family="Inter, Arial" text-anchor="middle">arithmetic</text>
<text x="285.0" y="88" fill="#cbd5e1" font-size="11" font-family="Inter, Arial" text-anchor="middle">constraint</text>
<text x="285.0" y="102" fill="#cbd5e1" font-size="11" font-family="Inter, Arial" text-anchor="middle">control</text>
<text x="393.0" y="74" fill="#cbd5e1" font-size="11" font-family="Inter, Arial" text-anchor="middle">routing</text>
<text x="393.0" y="88" fill="#cbd5e1" font-size="11" font-family="Inter, Arial" text-anchor="middle">exact</text>
<text x="393.0" y="102" fill="#cbd5e1" font-size="11" font-family="Inter, Arial" text-anchor="middle">control</text>
<text x="501.0" y="74" fill="#cbd5e1" font-size="11" font-family="Inter, Arial" text-anchor="middle">python patch</text>
<text x="501.0" y="88" fill="#cbd5e1" font-size="11" font-family="Inter, Arial" text-anchor="middle">known</text>
<text x="501.0" y="102" fill="#cbd5e1" font-size="11" font-family="Inter, Arial" text-anchor="middle">issues</text>
<text x="609.0" y="74" fill="#cbd5e1" font-size="11" font-family="Inter, Arial" text-anchor="middle">javascript async</text>
<text x="609.0" y="88" fill="#cbd5e1" font-size="11" font-family="Inter, Arial" text-anchor="middle">known</text>
<text x="609.0" y="102" fill="#cbd5e1" font-size="11" font-family="Inter, Arial" text-anchor="middle">issues</text>
<text x="717.0" y="74" fill="#cbd5e1" font-size="11" font-family="Inter, Arial" text-anchor="middle">operator</text>
<text x="717.0" y="88" fill="#cbd5e1" font-size="11" font-family="Inter, Arial" text-anchor="middle">hard</text>
<text x="717.0" y="102" fill="#cbd5e1" font-size="11" font-family="Inter, Arial" text-anchor="middle">directive</text>
<text x="825.0" y="74" fill="#cbd5e1" font-size="11" font-family="Inter, Arial" text-anchor="middle">UI regression</text>
<text x="825.0" y="88" fill="#cbd5e1" font-size="11" font-family="Inter, Arial" text-anchor="middle">exact</text>
<text x="933.0" y="74" fill="#cbd5e1" font-size="11" font-family="Inter, Arial" text-anchor="middle">artifact</text>
<text x="933.0" y="88" fill="#cbd5e1" font-size="11" font-family="Inter, Arial" text-anchor="middle">outlier</text>
<text x="933.0" y="102" fill="#cbd5e1" font-size="11" font-family="Inter, Arial" text-anchor="middle">exact</text>
<text x="1041.0" y="74" fill="#cbd5e1" font-size="11" font-family="Inter, Arial" text-anchor="middle">python sorting</text>
<text x="1041.0" y="88" fill="#cbd5e1" font-size="11" font-family="Inter, Arial" text-anchor="middle">exact</text>
<text x="1149.0" y="74" fill="#cbd5e1" font-size="11" font-family="Inter, Arial" text-anchor="middle">needle</text>
<text x="1149.0" y="88" fill="#cbd5e1" font-size="11" font-family="Inter, Arial" text-anchor="middle">~35k</text>
<text x="1149.0" y="102" fill="#cbd5e1" font-size="11" font-family="Inter, Arial" text-anchor="middle">common</text>
<text x="1257.0" y="74" fill="#cbd5e1" font-size="11" font-family="Inter, Arial" text-anchor="middle">needle</text>
<text x="1257.0" y="88" fill="#cbd5e1" font-size="11" font-family="Inter, Arial" text-anchor="middle">&gt;65k</text>
<text x="1257.0" y="102" fill="#cbd5e1" font-size="11" font-family="Inter, Arial" text-anchor="middle">extended</text>
<text x="18" y="158" fill="#cbd5e1" font-size="13" font-family="Inter, Arial">unsloth-65k-f16</text>
<rect x="235" y="132" width="100" height="35" rx="6" fill="#22c55e" opacity="0.92"/>
<text x="285.0" y="154" fill="#08111f" font-size="12" font-family="Inter, Arial" text-anchor="middle" font-weight="700">2/2</text>
<rect x="343" y="132" width="100" height="35" rx="6" fill="#22c55e" opacity="0.92"/>
<text x="393.0" y="154" fill="#08111f" font-size="12" font-family="Inter, Arial" text-anchor="middle" font-weight="700">2/2</text>
<rect x="451" y="132" width="100" height="35" rx="6" fill="#22c55e" opacity="0.92"/>
<text x="501.0" y="154" fill="#08111f" font-size="12" font-family="Inter, Arial" text-anchor="middle" font-weight="700">6/6</text>
<rect x="559" y="132" width="100" height="35" rx="6" fill="#22c55e" opacity="0.92"/>
<text x="609.0" y="154" fill="#08111f" font-size="12" font-family="Inter, Arial" text-anchor="middle" font-weight="700">5/5</text>
<rect x="667" y="132" width="100" height="35" rx="6" fill="#f59e0b" opacity="0.92"/>
<text x="717.0" y="154" fill="#08111f" font-size="12" font-family="Inter, Arial" text-anchor="middle" font-weight="700">3/4</text>
<rect x="775" y="132" width="100" height="35" rx="6" fill="#22c55e" opacity="0.92"/>
<text x="825.0" y="154" fill="#08111f" font-size="12" font-family="Inter, Arial" text-anchor="middle" font-weight="700">6/6</text>
<rect x="883" y="132" width="100" height="35" rx="6" fill="#f59e0b" opacity="0.92"/>
<text x="933.0" y="154" fill="#08111f" font-size="12" font-family="Inter, Arial" text-anchor="middle" font-weight="700">4/5</text>
<rect x="991" y="132" width="100" height="35" rx="6" fill="#f59e0b" opacity="0.92"/>
<text x="1041.0" y="154" fill="#08111f" font-size="12" font-family="Inter, Arial" text-anchor="middle" font-weight="700">2/3</text>
<rect x="1099" y="132" width="100" height="35" rx="6" fill="#22c55e" opacity="0.92"/>
<text x="1149.0" y="154" fill="#08111f" font-size="12" font-family="Inter, Arial" text-anchor="middle" font-weight="700">3/3</text>
<rect x="1207" y="132" width="100" height="35" rx="6" fill="#ef4444" opacity="0.92"/>
<text x="1257.0" y="154" fill="#08111f" font-size="12" font-family="Inter, Arial" text-anchor="middle" font-weight="700">0/3</text>
<text x="18" y="200" fill="#cbd5e1" font-size="13" font-family="Inter, Arial">unsloth-65k-q8</text>
<rect x="235" y="174" width="100" height="35" rx="6" fill="#22c55e" opacity="0.92"/>
<text x="285.0" y="196" fill="#08111f" font-size="12" font-family="Inter, Arial" text-anchor="middle" font-weight="700">2/2</text>
<rect x="343" y="174" width="100" height="35" rx="6" fill="#22c55e" opacity="0.92"/>
<text x="393.0" y="196" fill="#08111f" font-size="12" font-family="Inter, Arial" text-anchor="middle" font-weight="700">2/2</text>
<rect x="451" y="174" width="100" height="35" rx="6" fill="#22c55e" opacity="0.92"/>
<text x="501.0" y="196" fill="#08111f" font-size="12" font-family="Inter, Arial" text-anchor="middle" font-weight="700">6/6</text>
<rect x="559" y="174" width="100" height="35" rx="6" fill="#22c55e" opacity="0.92"/>
<text x="609.0" y="196" fill="#08111f" font-size="12" font-family="Inter, Arial" text-anchor="middle" font-weight="700">5/5</text>
<rect x="667" y="174" width="100" height="35" rx="6" fill="#f59e0b" opacity="0.92"/>
<text x="717.0" y="196" fill="#08111f" font-size="12" font-family="Inter, Arial" text-anchor="middle" font-weight="700">3/4</text>
<rect x="775" y="174" width="100" height="35" rx="6" fill="#22c55e" opacity="0.92"/>
<text x="825.0" y="196" fill="#08111f" font-size="12" font-family="Inter, Arial" text-anchor="middle" font-weight="700">6/6</text>
<rect x="883" y="174" width="100" height="35" rx="6" fill="#f59e0b" opacity="0.92"/>
<text x="933.0" y="196" fill="#08111f" font-size="12" font-family="Inter, Arial" text-anchor="middle" font-weight="700">4/5</text>
<rect x="991" y="174" width="100" height="35" rx="6" fill="#f59e0b" opacity="0.92"/>
<text x="1041.0" y="196" fill="#08111f" font-size="12" font-family="Inter, Arial" text-anchor="middle" font-weight="700">2/3</text>
<rect x="1099" y="174" width="100" height="35" rx="6" fill="#22c55e" opacity="0.92"/>
<text x="1149.0" y="196" fill="#08111f" font-size="12" font-family="Inter, Arial" text-anchor="middle" font-weight="700">3/3</text>
<rect x="1207" y="174" width="100" height="35" rx="6" fill="#ef4444" opacity="0.92"/>
<text x="1257.0" y="196" fill="#08111f" font-size="12" font-family="Inter, Arial" text-anchor="middle" font-weight="700">0/3</text>
<text x="18" y="242" fill="#cbd5e1" font-size="13" font-family="Inter, Arial">bartowski-128k-f16</text>
<rect x="235" y="216" width="100" height="35" rx="6" fill="#22c55e" opacity="0.92"/>
<text x="285.0" y="238" fill="#08111f" font-size="12" font-family="Inter, Arial" text-anchor="middle" font-weight="700">2/2</text>
<rect x="343" y="216" width="100" height="35" rx="6" fill="#22c55e" opacity="0.92"/>
<text x="393.0" y="238" fill="#08111f" font-size="12" font-family="Inter, Arial" text-anchor="middle" font-weight="700">2/2</text>
<rect x="451" y="216" width="100" height="35" rx="6" fill="#22c55e" opacity="0.92"/>
<text x="501.0" y="238" fill="#08111f" font-size="12" font-family="Inter, Arial" text-anchor="middle" font-weight="700">6/6</text>
<rect x="559" y="216" width="100" height="35" rx="6" fill="#22c55e" opacity="0.92"/>
<text x="609.0" y="238" fill="#08111f" font-size="12" font-family="Inter, Arial" text-anchor="middle" font-weight="700">5/5</text>
<rect x="667" y="216" width="100" height="35" rx="6" fill="#f59e0b" opacity="0.92"/>
<text x="717.0" y="238" fill="#08111f" font-size="12" font-family="Inter, Arial" text-anchor="middle" font-weight="700">3/4</text>
<rect x="775" y="216" width="100" height="35" rx="6" fill="#22c55e" opacity="0.92"/>
<text x="825.0" y="238" fill="#08111f" font-size="12" font-family="Inter, Arial" text-anchor="middle" font-weight="700">6/6</text>
<rect x="883" y="216" width="100" height="35" rx="6" fill="#f59e0b" opacity="0.92"/>
<text x="933.0" y="238" fill="#08111f" font-size="12" font-family="Inter, Arial" text-anchor="middle" font-weight="700">4/5</text>
<rect x="991" y="216" width="100" height="35" rx="6" fill="#f59e0b" opacity="0.92"/>
<text x="1041.0" y="238" fill="#08111f" font-size="12" font-family="Inter, Arial" text-anchor="middle" font-weight="700">2/3</text>
<rect x="1099" y="216" width="100" height="35" rx="6" fill="#22c55e" opacity="0.92"/>
<text x="1149.0" y="238" fill="#08111f" font-size="12" font-family="Inter, Arial" text-anchor="middle" font-weight="700">3/3</text>
<rect x="1207" y="216" width="100" height="35" rx="6" fill="#22c55e" opacity="0.92"/>
<text x="1257.0" y="238" fill="#08111f" font-size="12" font-family="Inter, Arial" text-anchor="middle" font-weight="700">3/3</text>
<text x="18" y="284" fill="#cbd5e1" font-size="13" font-family="Inter, Arial">bartowski-128k-q8</text>
<rect x="235" y="258" width="100" height="35" rx="6" fill="#22c55e" opacity="0.92"/>
<text x="285.0" y="280" fill="#08111f" font-size="12" font-family="Inter, Arial" text-anchor="middle" font-weight="700">2/2</text>
<rect x="343" y="258" width="100" height="35" rx="6" fill="#22c55e" opacity="0.92"/>
<text x="393.0" y="280" fill="#08111f" font-size="12" font-family="Inter, Arial" text-anchor="middle" font-weight="700">2/2</text>
<rect x="451" y="258" width="100" height="35" rx="6" fill="#22c55e" opacity="0.92"/>
<text x="501.0" y="280" fill="#08111f" font-size="12" font-family="Inter, Arial" text-anchor="middle" font-weight="700">6/6</text>
<rect x="559" y="258" width="100" height="35" rx="6" fill="#22c55e" opacity="0.92"/>
<text x="609.0" y="280" fill="#08111f" font-size="12" font-family="Inter, Arial" text-anchor="middle" font-weight="700">5/5</text>
<rect x="667" y="258" width="100" height="35" rx="6" fill="#f59e0b" opacity="0.92"/>
<text x="717.0" y="280" fill="#08111f" font-size="12" font-family="Inter, Arial" text-anchor="middle" font-weight="700">3/4</text>
<rect x="775" y="258" width="100" height="35" rx="6" fill="#22c55e" opacity="0.92"/>
<text x="825.0" y="280" fill="#08111f" font-size="12" font-family="Inter, Arial" text-anchor="middle" font-weight="700">6/6</text>
<rect x="883" y="258" width="100" height="35" rx="6" fill="#f59e0b" opacity="0.92"/>
<text x="933.0" y="280" fill="#08111f" font-size="12" font-family="Inter, Arial" text-anchor="middle" font-weight="700">4/5</text>
<rect x="991" y="258" width="100" height="35" rx="6" fill="#f59e0b" opacity="0.92"/>
<text x="1041.0" y="280" fill="#08111f" font-size="12" font-family="Inter, Arial" text-anchor="middle" font-weight="700">2/3</text>
<rect x="1099" y="258" width="100" height="35" rx="6" fill="#22c55e" opacity="0.92"/>
<text x="1149.0" y="280" fill="#08111f" font-size="12" font-family="Inter, Arial" text-anchor="middle" font-weight="700">3/3</text>
<rect x="1207" y="258" width="100" height="35" rx="6" fill="#22c55e" opacity="0.92"/>
<text x="1257.0" y="280" fill="#08111f" font-size="12" font-family="Inter, Arial" text-anchor="middle" font-weight="700">3/3</text>
<text x="18" y="326" fill="#cbd5e1" font-size="13" font-family="Inter, Arial">unsloth-128k-f16</text>
<rect x="235" y="300" width="100" height="35" rx="6" fill="#22c55e" opacity="0.92"/>
<text x="285.0" y="322" fill="#08111f" font-size="12" font-family="Inter, Arial" text-anchor="middle" font-weight="700">2/2</text>
<rect x="343" y="300" width="100" height="35" rx="6" fill="#22c55e" opacity="0.92"/>
<text x="393.0" y="322" fill="#08111f" font-size="12" font-family="Inter, Arial" text-anchor="middle" font-weight="700">2/2</text>
<rect x="451" y="300" width="100" height="35" rx="6" fill="#22c55e" opacity="0.92"/>
<text x="501.0" y="322" fill="#08111f" font-size="12" font-family="Inter, Arial" text-anchor="middle" font-weight="700">6/6</text>
<rect x="559" y="300" width="100" height="35" rx="6" fill="#22c55e" opacity="0.92"/>
<text x="609.0" y="322" fill="#08111f" font-size="12" font-family="Inter, Arial" text-anchor="middle" font-weight="700">5/5</text>
<rect x="667" y="300" width="100" height="35" rx="6" fill="#f59e0b" opacity="0.92"/>
<text x="717.0" y="322" fill="#08111f" font-size="12" font-family="Inter, Arial" text-anchor="middle" font-weight="700">3/4</text>
<rect x="775" y="300" width="100" height="35" rx="6" fill="#22c55e" opacity="0.92"/>
<text x="825.0" y="322" fill="#08111f" font-size="12" font-family="Inter, Arial" text-anchor="middle" font-weight="700">6/6</text>
<rect x="883" y="300" width="100" height="35" rx="6" fill="#f59e0b" opacity="0.92"/>
<text x="933.0" y="322" fill="#08111f" font-size="12" font-family="Inter, Arial" text-anchor="middle" font-weight="700">4/5</text>
<rect x="991" y="300" width="100" height="35" rx="6" fill="#f59e0b" opacity="0.92"/>
<text x="1041.0" y="322" fill="#08111f" font-size="12" font-family="Inter, Arial" text-anchor="middle" font-weight="700">2/3</text>
<rect x="1099" y="300" width="100" height="35" rx="6" fill="#ef4444" opacity="0.92"/>
<text x="1149.0" y="322" fill="#08111f" font-size="12" font-family="Inter, Arial" text-anchor="middle" font-weight="700">0/3</text>
<rect x="1207" y="300" width="100" height="35" rx="6" fill="#ef4444" opacity="0.92"/>
<text x="1257.0" y="322" fill="#08111f" font-size="12" font-family="Inter, Arial" text-anchor="middle" font-weight="700">0/3</text>
<text x="18" y="368" fill="#cbd5e1" font-size="13" font-family="Inter, Arial">unsloth-128k-q8</text>
<rect x="235" y="342" width="100" height="35" rx="6" fill="#22c55e" opacity="0.92"/>
<text x="285.0" y="364" fill="#08111f" font-size="12" font-family="Inter, Arial" text-anchor="middle" font-weight="700">2/2</text>
<rect x="343" y="342" width="100" height="35" rx="6" fill="#22c55e" opacity="0.92"/>
<text x="393.0" y="364" fill="#08111f" font-size="12" font-family="Inter, Arial" text-anchor="middle" font-weight="700">2/2</text>
<rect x="451" y="342" width="100" height="35" rx="6" fill="#22c55e" opacity="0.92"/>
<text x="501.0" y="364" fill="#08111f" font-size="12" font-family="Inter, Arial" text-anchor="middle" font-weight="700">6/6</text>
<rect x="559" y="342" width="100" height="35" rx="6" fill="#22c55e" opacity="0.92"/>
<text x="609.0" y="364" fill="#08111f" font-size="12" font-family="Inter, Arial" text-anchor="middle" font-weight="700">5/5</text>
<rect x="667" y="342" width="100" height="35" rx="6" fill="#f59e0b" opacity="0.92"/>
<text x="717.0" y="364" fill="#08111f" font-size="12" font-family="Inter, Arial" text-anchor="middle" font-weight="700">3/4</text>
<rect x="775" y="342" width="100" height="35" rx="6" fill="#22c55e" opacity="0.92"/>
<text x="825.0" y="364" fill="#08111f" font-size="12" font-family="Inter, Arial" text-anchor="middle" font-weight="700">6/6</text>
<rect x="883" y="342" width="100" height="35" rx="6" fill="#f59e0b" opacity="0.92"/>
<text x="933.0" y="364" fill="#08111f" font-size="12" font-family="Inter, Arial" text-anchor="middle" font-weight="700">4/5</text>
<rect x="991" y="342" width="100" height="35" rx="6" fill="#f59e0b" opacity="0.92"/>
<text x="1041.0" y="364" fill="#08111f" font-size="12" font-family="Inter, Arial" text-anchor="middle" font-weight="700">2/3</text>
<rect x="1099" y="342" width="100" height="35" rx="6" fill="#22c55e" opacity="0.92"/>
<text x="1149.0" y="364" fill="#08111f" font-size="12" font-family="Inter, Arial" text-anchor="middle" font-weight="700">3/3</text>
<rect x="1207" y="342" width="100" height="35" rx="6" fill="#22c55e" opacity="0.92"/>
<text x="1257.0" y="364" fill="#08111f" font-size="12" font-family="Inter, Arial" text-anchor="middle" font-weight="700">3/3</text>
<text x="18" y="420" fill="#94a3b8" font-size="13" font-family="Inter, Arial">Generated from per-case records in results/max-accuracy-v1/raw/</text>
</svg>