<svg xmlns="http://www.w3.org/2000/svg" width="1100" height="520" viewBox="0 0 1100 520">
<rect width="100%" height="100%" fill="#0b1020"/>
<text x="280" y="34" fill="#f8fafc" font-size="24" font-family="Inter, Arial" font-weight="700">Exact-score accuracy by profile</text>
<line x1="280" y1="430" x2="1060" y2="430" stroke="#334155"/>
<text x="20" y="101.5" fill="#cbd5e1" font-size="15" font-family="Inter, Arial">unsloth-65k-f16</text>
<rect x="280" y="79.8" width="660.0" height="31.9" rx="7" fill="#38bdf8"/>
<text x="950.0" y="101.5" fill="#f8fafc" font-size="14" font-family="Inter, Arial">33/39 (84.6%)</text>
<text x="20" y="152.9" fill="#cbd5e1" font-size="15" font-family="Inter, Arial">unsloth-65k-q8</text>
<rect x="280" y="131.2" width="660.0" height="31.9" rx="7" fill="#38bdf8"/>
<text x="950.0" y="152.9" fill="#f8fafc" font-size="14" font-family="Inter, Arial">33/39 (84.6%)</text>
<text x="20" y="204.3" fill="#cbd5e1" font-size="15" font-family="Inter, Arial">bartowski-128k-f16</text>
<rect x="280" y="182.6" width="720.0" height="31.9" rx="7" fill="#a78bfa"/>
<text x="1010.0" y="204.3" fill="#f8fafc" font-size="14" font-family="Inter, Arial">36/39 (92.3%)</text>
<text x="20" y="255.7" fill="#cbd5e1" font-size="15" font-family="Inter, Arial">bartowski-128k-q8</text>
<rect x="280" y="234.1" width="720.0" height="31.9" rx="7" fill="#a78bfa"/>
<text x="1010.0" y="255.7" fill="#f8fafc" font-size="14" font-family="Inter, Arial">36/39 (92.3%)</text>
<text x="20" y="307.2" fill="#cbd5e1" font-size="15" font-family="Inter, Arial">unsloth-128k-f16</text>
<rect x="280" y="285.5" width="600.0" height="31.9" rx="7" fill="#38bdf8"/>
<text x="890.0" y="307.2" fill="#f8fafc" font-size="14" font-family="Inter, Arial">30/39 (76.9%)</text>
<text x="20" y="358.6" fill="#cbd5e1" font-size="15" font-family="Inter, Arial">unsloth-128k-q8</text>
<rect x="280" y="336.9" width="720.0" height="31.9" rx="7" fill="#38bdf8"/>
<text x="1010.0" y="358.6" fill="#f8fafc" font-size="14" font-family="Inter, Arial">36/39 (92.3%)</text>
<text x="20" y="410.0" fill="#cbd5e1" font-size="15" font-family="Inter, Arial">unsloth-128k-q8-reasoning-on-enable-false-preserve-false</text>
<rect x="280" y="388.3" width="720.0" height="31.9" rx="7" fill="#f59e0b"/>
<text x="1010.0" y="410.0" fill="#f8fafc" font-size="14" font-family="Inter, Arial">36/39 (92.3%)</text>
<text x="20" y="500" fill="#94a3b8" font-size="13" font-family="Inter, Arial">Generated from results/max-accuracy-v1/summary.json</text>
</svg>