<svg xmlns="http://www.w3.org/2000/svg" width="1100" height="520" viewBox="0 0 1100 520">
<rect width="100%" height="100%" fill="#0b1020"/>
<text x="310" y="34" fill="#f8fafc" font-size="24" font-family="Inter, Arial" font-weight="700">Exact-score accuracy by profile</text>
<line x1="310" y1="430" x2="1060" y2="430" stroke="#334155"/>
<text x="20" y="106.7" fill="#cbd5e1" font-size="14" font-family="Inter, Arial">unsloth-65k-f16</text>
<rect x="310" y="81.4" width="634.6" height="37.2" rx="7" fill="#38bdf8"/>
<text x="954.6" y="106.7" fill="#f8fafc" font-size="14" font-family="Inter, Arial">33/39 (84.6%)</text>
<text x="20" y="166.7" fill="#cbd5e1" font-size="14" font-family="Inter, Arial">unsloth-65k-q8</text>
<rect x="310" y="141.4" width="634.6" height="37.2" rx="7" fill="#38bdf8"/>
<text x="954.6" y="166.7" fill="#f8fafc" font-size="14" font-family="Inter, Arial">33/39 (84.6%)</text>
<text x="20" y="226.7" fill="#cbd5e1" font-size="14" font-family="Inter, Arial">bartowski-128k-f16</text>
<rect x="310" y="201.4" width="692.3" height="37.2" rx="7" fill="#a78bfa"/>
<text x="1012.3" y="226.7" fill="#f8fafc" font-size="14" font-family="Inter, Arial">36/39 (92.3%)</text>
<text x="20" y="286.7" fill="#cbd5e1" font-size="14" font-family="Inter, Arial">bartowski-128k-q8</text>
<rect x="310" y="261.4" width="692.3" height="37.2" rx="7" fill="#a78bfa"/>
<text x="1012.3" y="286.7" fill="#f8fafc" font-size="14" font-family="Inter, Arial">36/39 (92.3%)</text>
<text x="20" y="346.7" fill="#cbd5e1" font-size="14" font-family="Inter, Arial">unsloth-128k-f16</text>
<rect x="310" y="321.4" width="576.9" height="37.2" rx="7" fill="#38bdf8"/>
<text x="896.9" y="346.7" fill="#f8fafc" font-size="14" font-family="Inter, Arial">30/39 (76.9%)</text>
<text x="20" y="406.7" fill="#cbd5e1" font-size="14" font-family="Inter, Arial">unsloth-128k-q8</text>
<rect x="310" y="381.4" width="692.3" height="37.2" rx="7" fill="#38bdf8"/>
<text x="1012.3" y="406.7" fill="#f8fafc" font-size="14" font-family="Inter, Arial">36/39 (92.3%)</text>
<text x="20" y="500" fill="#94a3b8" font-size="13" font-family="Inter, Arial">Generated from results/max-accuracy-v1/summary.json</text>
</svg>