<svg xmlns="http://www.w3.org/2000/svg" width="1070" height="424" viewBox="0 0 1070 424">
<rect width="100%" height="100%" fill="#0b1020"/>
<text x="250" y="34" fill="#f8fafc" font-size="24" font-family="Inter, Arial" font-weight="700">Case pass heatmap</text>
<text x="289.0" y="76" fill="#cbd5e1" font-size="11" font-family="Inter, Arial" text-anchor="middle" transform="rotate(-35 289.0,76)">arithmetic_constraint_control</text>
<text x="367.0" y="76" fill="#cbd5e1" font-size="11" font-family="Inter, Arial" text-anchor="middle" transform="rotate(-35 367.0,76)">routing_exact_control</text>
<text x="445.0" y="76" fill="#cbd5e1" font-size="11" font-family="Inter, Arial" text-anchor="middle" transform="rotate(-35 445.0,76)">python_patch_known_issues</text>
<text x="523.0" y="76" fill="#cbd5e1" font-size="11" font-family="Inter, Arial" text-anchor="middle" transform="rotate(-35 523.0,76)">javascript_async_known_issues</text>
<text x="601.0" y="76" fill="#cbd5e1" font-size="11" font-family="Inter, Arial" text-anchor="middle" transform="rotate(-35 601.0,76)">operator_hard_directive</text>
<text x="679.0" y="76" fill="#cbd5e1" font-size="11" font-family="Inter, Arial" text-anchor="middle" transform="rotate(-35 679.0,76)">ui_regression_exact</text>
<text x="757.0" y="76" fill="#cbd5e1" font-size="11" font-family="Inter, Arial" text-anchor="middle" transform="rotate(-35 757.0,76)">artifact_outlier_exact</text>
<text x="835.0" y="76" fill="#cbd5e1" font-size="11" font-family="Inter, Arial" text-anchor="middle" transform="rotate(-35 835.0,76)">python_sorting_exact</text>
<text x="913.0" y="76" fill="#cbd5e1" font-size="11" font-family="Inter, Arial" text-anchor="middle" transform="rotate(-35 913.0,76)">needle_common_approx_35k</text>
<text x="991.0" y="76" fill="#cbd5e1" font-size="11" font-family="Inter, Arial" text-anchor="middle" transform="rotate(-35 991.0,76)">needle_extended_beyond_65k</text>
<text x="15" y="111" fill="#cbd5e1" font-size="13" font-family="Inter, Arial">unsloth-65k-f16</text>
<rect x="250" y="90" width="74" height="28" rx="5" fill="#22c55e" opacity="0.9"/>
<text x="287.0" y="109" fill="#08111f" font-size="12" font-family="Inter, Arial" text-anchor="middle" font-weight="700">2/2</text>
<rect x="328" y="90" width="74" height="28" rx="5" fill="#22c55e" opacity="0.9"/>
<text x="365.0" y="109" fill="#08111f" font-size="12" font-family="Inter, Arial" text-anchor="middle" font-weight="700">2/2</text>
<rect x="406" y="90" width="74" height="28" rx="5" fill="#22c55e" opacity="0.9"/>
<text x="443.0" y="109" fill="#08111f" font-size="12" font-family="Inter, Arial" text-anchor="middle" font-weight="700">6/6</text>
<rect x="484" y="90" width="74" height="28" rx="5" fill="#22c55e" opacity="0.9"/>
<text x="521.0" y="109" fill="#08111f" font-size="12" font-family="Inter, Arial" text-anchor="middle" font-weight="700">5/5</text>
<rect x="562" y="90" width="74" height="28" rx="5" fill="#f59e0b" opacity="0.9"/>
<text x="599.0" y="109" fill="#08111f" font-size="12" font-family="Inter, Arial" text-anchor="middle" font-weight="700">3/4</text>
<rect x="640" y="90" width="74" height="28" rx="5" fill="#22c55e" opacity="0.9"/>
<text x="677.0" y="109" fill="#08111f" font-size="12" font-family="Inter, Arial" text-anchor="middle" font-weight="700">6/6</text>
<rect x="718" y="90" width="74" height="28" rx="5" fill="#f59e0b" opacity="0.9"/>
<text x="755.0" y="109" fill="#08111f" font-size="12" font-family="Inter, Arial" text-anchor="middle" font-weight="700">4/5</text>
<rect x="796" y="90" width="74" height="28" rx="5" fill="#f59e0b" opacity="0.9"/>
<text x="833.0" y="109" fill="#08111f" font-size="12" font-family="Inter, Arial" text-anchor="middle" font-weight="700">2/3</text>
<rect x="874" y="90" width="74" height="28" rx="5" fill="#22c55e" opacity="0.9"/>
<text x="911.0" y="109" fill="#08111f" font-size="12" font-family="Inter, Arial" text-anchor="middle" font-weight="700">3/3</text>
<rect x="952" y="90" width="74" height="28" rx="5" fill="#ef4444" opacity="0.9"/>
<text x="989.0" y="109" fill="#08111f" font-size="12" font-family="Inter, Arial" text-anchor="middle" font-weight="700">0/3</text>
<text x="15" y="143" fill="#cbd5e1" font-size="13" font-family="Inter, Arial">unsloth-65k-q8</text>
<rect x="250" y="122" width="74" height="28" rx="5" fill="#22c55e" opacity="0.9"/>
<text x="287.0" y="141" fill="#08111f" font-size="12" font-family="Inter, Arial" text-anchor="middle" font-weight="700">2/2</text>
<rect x="328" y="122" width="74" height="28" rx="5" fill="#22c55e" opacity="0.9"/>
<text x="365.0" y="141" fill="#08111f" font-size="12" font-family="Inter, Arial" text-anchor="middle" font-weight="700">2/2</text>
<rect x="406" y="122" width="74" height="28" rx="5" fill="#22c55e" opacity="0.9"/>
<text x="443.0" y="141" fill="#08111f" font-size="12" font-family="Inter, Arial" text-anchor="middle" font-weight="700">6/6</text>
<rect x="484" y="122" width="74" height="28" rx="5" fill="#22c55e" opacity="0.9"/>
<text x="521.0" y="141" fill="#08111f" font-size="12" font-family="Inter, Arial" text-anchor="middle" font-weight="700">5/5</text>
<rect x="562" y="122" width="74" height="28" rx="5" fill="#f59e0b" opacity="0.9"/>
<text x="599.0" y="141" fill="#08111f" font-size="12" font-family="Inter, Arial" text-anchor="middle" font-weight="700">3/4</text>
<rect x="640" y="122" width="74" height="28" rx="5" fill="#22c55e" opacity="0.9"/>
<text x="677.0" y="141" fill="#08111f" font-size="12" font-family="Inter, Arial" text-anchor="middle" font-weight="700">6/6</text>
<rect x="718" y="122" width="74" height="28" rx="5" fill="#f59e0b" opacity="0.9"/>
<text x="755.0" y="141" fill="#08111f" font-size="12" font-family="Inter, Arial" text-anchor="middle" font-weight="700">4/5</text>
<rect x="796" y="122" width="74" height="28" rx="5" fill="#f59e0b" opacity="0.9"/>
<text x="833.0" y="141" fill="#08111f" font-size="12" font-family="Inter, Arial" text-anchor="middle" font-weight="700">2/3</text>
<rect x="874" y="122" width="74" height="28" rx="5" fill="#22c55e" opacity="0.9"/>
<text x="911.0" y="141" fill="#08111f" font-size="12" font-family="Inter, Arial" text-anchor="middle" font-weight="700">3/3</text>
<rect x="952" y="122" width="74" height="28" rx="5" fill="#ef4444" opacity="0.9"/>
<text x="989.0" y="141" fill="#08111f" font-size="12" font-family="Inter, Arial" text-anchor="middle" font-weight="700">0/3</text>
<text x="15" y="175" fill="#cbd5e1" font-size="13" font-family="Inter, Arial">bartowski-128k-f16</text>
<rect x="250" y="154" width="74" height="28" rx="5" fill="#22c55e" opacity="0.9"/>
<text x="287.0" y="173" fill="#08111f" font-size="12" font-family="Inter, Arial" text-anchor="middle" font-weight="700">2/2</text>
<rect x="328" y="154" width="74" height="28" rx="5" fill="#22c55e" opacity="0.9"/>
<text x="365.0" y="173" fill="#08111f" font-size="12" font-family="Inter, Arial" text-anchor="middle" font-weight="700">2/2</text>
<rect x="406" y="154" width="74" height="28" rx="5" fill="#22c55e" opacity="0.9"/>
<text x="443.0" y="173" fill="#08111f" font-size="12" font-family="Inter, Arial" text-anchor="middle" font-weight="700">6/6</text>
<rect x="484" y="154" width="74" height="28" rx="5" fill="#22c55e" opacity="0.9"/>
<text x="521.0" y="173" fill="#08111f" font-size="12" font-family="Inter, Arial" text-anchor="middle" font-weight="700">5/5</text>
<rect x="562" y="154" width="74" height="28" rx="5" fill="#f59e0b" opacity="0.9"/>
<text x="599.0" y="173" fill="#08111f" font-size="12" font-family="Inter, Arial" text-anchor="middle" font-weight="700">3/4</text>
<rect x="640" y="154" width="74" height="28" rx="5" fill="#22c55e" opacity="0.9"/>
<text x="677.0" y="173" fill="#08111f" font-size="12" font-family="Inter, Arial" text-anchor="middle" font-weight="700">6/6</text>
<rect x="718" y="154" width="74" height="28" rx="5" fill="#f59e0b" opacity="0.9"/>
<text x="755.0" y="173" fill="#08111f" font-size="12" font-family="Inter, Arial" text-anchor="middle" font-weight="700">4/5</text>
<rect x="796" y="154" width="74" height="28" rx="5" fill="#f59e0b" opacity="0.9"/>
<text x="833.0" y="173" fill="#08111f" font-size="12" font-family="Inter, Arial" text-anchor="middle" font-weight="700">2/3</text>
<rect x="874" y="154" width="74" height="28" rx="5" fill="#22c55e" opacity="0.9"/>
<text x="911.0" y="173" fill="#08111f" font-size="12" font-family="Inter, Arial" text-anchor="middle" font-weight="700">3/3</text>
<rect x="952" y="154" width="74" height="28" rx="5" fill="#22c55e" opacity="0.9"/>
<text x="989.0" y="173" fill="#08111f" font-size="12" font-family="Inter, Arial" text-anchor="middle" font-weight="700">3/3</text>
<text x="15" y="207" fill="#cbd5e1" font-size="13" font-family="Inter, Arial">bartowski-128k-q8</text>
<rect x="250" y="186" width="74" height="28" rx="5" fill="#22c55e" opacity="0.9"/>
<text x="287.0" y="205" fill="#08111f" font-size="12" font-family="Inter, Arial" text-anchor="middle" font-weight="700">2/2</text>
<rect x="328" y="186" width="74" height="28" rx="5" fill="#22c55e" opacity="0.9"/>
<text x="365.0" y="205" fill="#08111f" font-size="12" font-family="Inter, Arial" text-anchor="middle" font-weight="700">2/2</text>
<rect x="406" y="186" width="74" height="28" rx="5" fill="#22c55e" opacity="0.9"/>
<text x="443.0" y="205" fill="#08111f" font-size="12" font-family="Inter, Arial" text-anchor="middle" font-weight="700">6/6</text>
<rect x="484" y="186" width="74" height="28" rx="5" fill="#22c55e" opacity="0.9"/>
<text x="521.0" y="205" fill="#08111f" font-size="12" font-family="Inter, Arial" text-anchor="middle" font-weight="700">5/5</text>
<rect x="562" y="186" width="74" height="28" rx="5" fill="#f59e0b" opacity="0.9"/>
<text x="599.0" y="205" fill="#08111f" font-size="12" font-family="Inter, Arial" text-anchor="middle" font-weight="700">3/4</text>
<rect x="640" y="186" width="74" height="28" rx="5" fill="#22c55e" opacity="0.9"/>
<text x="677.0" y="205" fill="#08111f" font-size="12" font-family="Inter, Arial" text-anchor="middle" font-weight="700">6/6</text>
<rect x="718" y="186" width="74" height="28" rx="5" fill="#f59e0b" opacity="0.9"/>
<text x="755.0" y="205" fill="#08111f" font-size="12" font-family="Inter, Arial" text-anchor="middle" font-weight="700">4/5</text>
<rect x="796" y="186" width="74" height="28" rx="5" fill="#f59e0b" opacity="0.9"/>
<text x="833.0" y="205" fill="#08111f" font-size="12" font-family="Inter, Arial" text-anchor="middle" font-weight="700">2/3</text>
<rect x="874" y="186" width="74" height="28" rx="5" fill="#22c55e" opacity="0.9"/>
<text x="911.0" y="205" fill="#08111f" font-size="12" font-family="Inter, Arial" text-anchor="middle" font-weight="700">3/3</text>
<rect x="952" y="186" width="74" height="28" rx="5" fill="#22c55e" opacity="0.9"/>
<text x="989.0" y="205" fill="#08111f" font-size="12" font-family="Inter, Arial" text-anchor="middle" font-weight="700">3/3</text>
<text x="15" y="239" fill="#cbd5e1" font-size="13" font-family="Inter, Arial">unsloth-128k-f16</text>
<rect x="250" y="218" width="74" height="28" rx="5" fill="#22c55e" opacity="0.9"/>
<text x="287.0" y="237" fill="#08111f" font-size="12" font-family="Inter, Arial" text-anchor="middle" font-weight="700">2/2</text>
<rect x="328" y="218" width="74" height="28" rx="5" fill="#22c55e" opacity="0.9"/>
<text x="365.0" y="237" fill="#08111f" font-size="12" font-family="Inter, Arial" text-anchor="middle" font-weight="700">2/2</text>
<rect x="406" y="218" width="74" height="28" rx="5" fill="#22c55e" opacity="0.9"/>
<text x="443.0" y="237" fill="#08111f" font-size="12" font-family="Inter, Arial" text-anchor="middle" font-weight="700">6/6</text>
<rect x="484" y="218" width="74" height="28" rx="5" fill="#22c55e" opacity="0.9"/>
<text x="521.0" y="237" fill="#08111f" font-size="12" font-family="Inter, Arial" text-anchor="middle" font-weight="700">5/5</text>
<rect x="562" y="218" width="74" height="28" rx="5" fill="#f59e0b" opacity="0.9"/>
<text x="599.0" y="237" fill="#08111f" font-size="12" font-family="Inter, Arial" text-anchor="middle" font-weight="700">3/4</text>
<rect x="640" y="218" width="74" height="28" rx="5" fill="#22c55e" opacity="0.9"/>
<text x="677.0" y="237" fill="#08111f" font-size="12" font-family="Inter, Arial" text-anchor="middle" font-weight="700">6/6</text>
<rect x="718" y="218" width="74" height="28" rx="5" fill="#f59e0b" opacity="0.9"/>
<text x="755.0" y="237" fill="#08111f" font-size="12" font-family="Inter, Arial" text-anchor="middle" font-weight="700">4/5</text>
<rect x="796" y="218" width="74" height="28" rx="5" fill="#f59e0b" opacity="0.9"/>
<text x="833.0" y="237" fill="#08111f" font-size="12" font-family="Inter, Arial" text-anchor="middle" font-weight="700">2/3</text>
<rect x="874" y="218" width="74" height="28" rx="5" fill="#ef4444" opacity="0.9"/>
<text x="911.0" y="237" fill="#08111f" font-size="12" font-family="Inter, Arial" text-anchor="middle" font-weight="700">0/3</text>
<rect x="952" y="218" width="74" height="28" rx="5" fill="#ef4444" opacity="0.9"/>
<text x="989.0" y="237" fill="#08111f" font-size="12" font-family="Inter, Arial" text-anchor="middle" font-weight="700">0/3</text>
<text x="15" y="271" fill="#cbd5e1" font-size="13" font-family="Inter, Arial">unsloth-128k-q8</text>
<rect x="250" y="250" width="74" height="28" rx="5" fill="#22c55e" opacity="0.9"/>
<text x="287.0" y="269" fill="#08111f" font-size="12" font-family="Inter, Arial" text-anchor="middle" font-weight="700">2/2</text>
<rect x="328" y="250" width="74" height="28" rx="5" fill="#22c55e" opacity="0.9"/>
<text x="365.0" y="269" fill="#08111f" font-size="12" font-family="Inter, Arial" text-anchor="middle" font-weight="700">2/2</text>
<rect x="406" y="250" width="74" height="28" rx="5" fill="#22c55e" opacity="0.9"/>
<text x="443.0" y="269" fill="#08111f" font-size="12" font-family="Inter, Arial" text-anchor="middle" font-weight="700">6/6</text>
<rect x="484" y="250" width="74" height="28" rx="5" fill="#22c55e" opacity="0.9"/>
<text x="521.0" y="269" fill="#08111f" font-size="12" font-family="Inter, Arial" text-anchor="middle" font-weight="700">5/5</text>
<rect x="562" y="250" width="74" height="28" rx="5" fill="#f59e0b" opacity="0.9"/>
<text x="599.0" y="269" fill="#08111f" font-size="12" font-family="Inter, Arial" text-anchor="middle" font-weight="700">3/4</text>
<rect x="640" y="250" width="74" height="28" rx="5" fill="#22c55e" opacity="0.9"/>
<text x="677.0" y="269" fill="#08111f" font-size="12" font-family="Inter, Arial" text-anchor="middle" font-weight="700">6/6</text>
<rect x="718" y="250" width="74" height="28" rx="5" fill="#f59e0b" opacity="0.9"/>
<text x="755.0" y="269" fill="#08111f" font-size="12" font-family="Inter, Arial" text-anchor="middle" font-weight="700">4/5</text>
<rect x="796" y="250" width="74" height="28" rx="5" fill="#f59e0b" opacity="0.9"/>
<text x="833.0" y="269" fill="#08111f" font-size="12" font-family="Inter, Arial" text-anchor="middle" font-weight="700">2/3</text>
<rect x="874" y="250" width="74" height="28" rx="5" fill="#22c55e" opacity="0.9"/>
<text x="911.0" y="269" fill="#08111f" font-size="12" font-family="Inter, Arial" text-anchor="middle" font-weight="700">3/3</text>
<rect x="952" y="250" width="74" height="28" rx="5" fill="#22c55e" opacity="0.9"/>
<text x="989.0" y="269" fill="#08111f" font-size="12" font-family="Inter, Arial" text-anchor="middle" font-weight="700">3/3</text>
<text x="15" y="303" fill="#cbd5e1" font-size="13" font-family="Inter, Arial">unsloth-128k-q8-reasoning-on-enable-false-preserve-false</text>
<rect x="250" y="282" width="74" height="28" rx="5" fill="#22c55e" opacity="0.9"/>
<text x="287.0" y="301" fill="#08111f" font-size="12" font-family="Inter, Arial" text-anchor="middle" font-weight="700">2/2</text>
<rect x="328" y="282" width="74" height="28" rx="5" fill="#22c55e" opacity="0.9"/>
<text x="365.0" y="301" fill="#08111f" font-size="12" font-family="Inter, Arial" text-anchor="middle" font-weight="700">2/2</text>
<rect x="406" y="282" width="74" height="28" rx="5" fill="#22c55e" opacity="0.9"/>
<text x="443.0" y="301" fill="#08111f" font-size="12" font-family="Inter, Arial" text-anchor="middle" font-weight="700">6/6</text>
<rect x="484" y="282" width="74" height="28" rx="5" fill="#22c55e" opacity="0.9"/>
<text x="521.0" y="301" fill="#08111f" font-size="12" font-family="Inter, Arial" text-anchor="middle" font-weight="700">5/5</text>
<rect x="562" y="282" width="74" height="28" rx="5" fill="#f59e0b" opacity="0.9"/>
<text x="599.0" y="301" fill="#08111f" font-size="12" font-family="Inter, Arial" text-anchor="middle" font-weight="700">3/4</text>
<rect x="640" y="282" width="74" height="28" rx="5" fill="#22c55e" opacity="0.9"/>
<text x="677.0" y="301" fill="#08111f" font-size="12" font-family="Inter, Arial" text-anchor="middle" font-weight="700">6/6</text>
<rect x="718" y="282" width="74" height="28" rx="5" fill="#f59e0b" opacity="0.9"/>
<text x="755.0" y="301" fill="#08111f" font-size="12" font-family="Inter, Arial" text-anchor="middle" font-weight="700">4/5</text>
<rect x="796" y="282" width="74" height="28" rx="5" fill="#f59e0b" opacity="0.9"/>
<text x="833.0" y="301" fill="#08111f" font-size="12" font-family="Inter, Arial" text-anchor="middle" font-weight="700">2/3</text>
<rect x="874" y="282" width="74" height="28" rx="5" fill="#22c55e" opacity="0.9"/>
<text x="911.0" y="301" fill="#08111f" font-size="12" font-family="Inter, Arial" text-anchor="middle" font-weight="700">3/3</text>
<rect x="952" y="282" width="74" height="28" rx="5" fill="#22c55e" opacity="0.9"/>
<text x="989.0" y="301" fill="#08111f" font-size="12" font-family="Inter, Arial" text-anchor="middle" font-weight="700">3/3</text>
<text x="15" y="400" fill="#94a3b8" font-size="13" font-family="Inter, Arial">Green = full credit, amber = partial, red = fail/error.</text>
</svg>