<svg xmlns="http://www.w3.org/2000/svg" width="1035" height="483" viewBox="0 0 1035 483">
<rect width="100%" height="100%" fill="#0b1020"/>
<text x="260" y="34" fill="#f8fafc" font-size="24" font-family="Inter, Arial" font-weight="700">Case pass heatmap</text>
<text x="260" y="58" fill="#94a3b8" font-size="13" font-family="Inter, Arial">Green = full credit, amber = partial, red = fail/error.</text>
<text x="297.0" y="149" fill="#cbd5e1" font-size="11" font-family="Inter, Arial" text-anchor="start" transform="rotate(-55 297.0,149)">arithmetic constraint control</text>
<text x="371.0" y="149" fill="#cbd5e1" font-size="11" font-family="Inter, Arial" text-anchor="start" transform="rotate(-55 371.0,149)">routing exact control</text>
<text x="445.0" y="149" fill="#cbd5e1" font-size="11" font-family="Inter, Arial" text-anchor="start" transform="rotate(-55 445.0,149)">python patch known issues</text>
<text x="519.0" y="149" fill="#cbd5e1" font-size="11" font-family="Inter, Arial" text-anchor="start" transform="rotate(-55 519.0,149)">javascript async known issues</text>
<text x="593.0" y="149" fill="#cbd5e1" font-size="11" font-family="Inter, Arial" text-anchor="start" transform="rotate(-55 593.0,149)">operator hard directive</text>
<text x="667.0" y="149" fill="#cbd5e1" font-size="11" font-family="Inter, Arial" text-anchor="start" transform="rotate(-55 667.0,149)">ui regression exact</text>
<text x="741.0" y="149" fill="#cbd5e1" font-size="11" font-family="Inter, Arial" text-anchor="start" transform="rotate(-55 741.0,149)">artifact outlier exact</text>
<text x="815.0" y="149" fill="#cbd5e1" font-size="11" font-family="Inter, Arial" text-anchor="start" transform="rotate(-55 815.0,149)">python sorting exact</text>
<text x="889.0" y="149" fill="#cbd5e1" font-size="11" font-family="Inter, Arial" text-anchor="start" transform="rotate(-55 889.0,149)">needle common approx 35k</text>
<text x="963.0" y="149" fill="#cbd5e1" font-size="11" font-family="Inter, Arial" text-anchor="start" transform="rotate(-55 963.0,149)">needle extended beyond 65k</text>
<text x="14" y="178" fill="#cbd5e1" font-size="12" font-family="Inter, Arial">unsloth-65k-f16</text>
<rect x="260" y="165" width="68" height="32" rx="5" fill="#22c55e" opacity="0.92"/>
<text x="294.0" y="186" fill="#08111f" font-size="12" font-family="Inter, Arial" text-anchor="middle" font-weight="700">2/2</text>
<rect x="334" y="165" width="68" height="32" rx="5" fill="#22c55e" opacity="0.92"/>
<text x="368.0" y="186" fill="#08111f" font-size="12" font-family="Inter, Arial" text-anchor="middle" font-weight="700">2/2</text>
<rect x="408" y="165" width="68" height="32" rx="5" fill="#22c55e" opacity="0.92"/>
<text x="442.0" y="186" fill="#08111f" font-size="12" font-family="Inter, Arial" text-anchor="middle" font-weight="700">6/6</text>
<rect x="482" y="165" width="68" height="32" rx="5" fill="#22c55e" opacity="0.92"/>
<text x="516.0" y="186" fill="#08111f" font-size="12" font-family="Inter, Arial" text-anchor="middle" font-weight="700">5/5</text>
<rect x="556" y="165" width="68" height="32" rx="5" fill="#f59e0b" opacity="0.92"/>
<text x="590.0" y="186" fill="#08111f" font-size="12" font-family="Inter, Arial" text-anchor="middle" font-weight="700">3/4</text>
<rect x="630" y="165" width="68" height="32" rx="5" fill="#22c55e" opacity="0.92"/>
<text x="664.0" y="186" fill="#08111f" font-size="12" font-family="Inter, Arial" text-anchor="middle" font-weight="700">6/6</text>
<rect x="704" y="165" width="68" height="32" rx="5" fill="#f59e0b" opacity="0.92"/>
<text x="738.0" y="186" fill="#08111f" font-size="12" font-family="Inter, Arial" text-anchor="middle" font-weight="700">4/5</text>
<rect x="778" y="165" width="68" height="32" rx="5" fill="#f59e0b" opacity="0.92"/>
<text x="812.0" y="186" fill="#08111f" font-size="12" font-family="Inter, Arial" text-anchor="middle" font-weight="700">2/3</text>
<rect x="852" y="165" width="68" height="32" rx="5" fill="#22c55e" opacity="0.92"/>
<text x="886.0" y="186" fill="#08111f" font-size="12" font-family="Inter, Arial" text-anchor="middle" font-weight="700">3/3</text>
<rect x="926" y="165" width="68" height="32" rx="5" fill="#ef4444" opacity="0.92"/>
<text x="960.0" y="186" fill="#08111f" font-size="12" font-family="Inter, Arial" text-anchor="middle" font-weight="700">0/3</text>
<text x="14" y="216" fill="#cbd5e1" font-size="12" font-family="Inter, Arial">unsloth-65k-q8</text>
<rect x="260" y="203" width="68" height="32" rx="5" fill="#22c55e" opacity="0.92"/>
<text x="294.0" y="224" fill="#08111f" font-size="12" font-family="Inter, Arial" text-anchor="middle" font-weight="700">2/2</text>
<rect x="334" y="203" width="68" height="32" rx="5" fill="#22c55e" opacity="0.92"/>
<text x="368.0" y="224" fill="#08111f" font-size="12" font-family="Inter, Arial" text-anchor="middle" font-weight="700">2/2</text>
<rect x="408" y="203" width="68" height="32" rx="5" fill="#22c55e" opacity="0.92"/>
<text x="442.0" y="224" fill="#08111f" font-size="12" font-family="Inter, Arial" text-anchor="middle" font-weight="700">6/6</text>
<rect x="482" y="203" width="68" height="32" rx="5" fill="#22c55e" opacity="0.92"/>
<text x="516.0" y="224" fill="#08111f" font-size="12" font-family="Inter, Arial" text-anchor="middle" font-weight="700">5/5</text>
<rect x="556" y="203" width="68" height="32" rx="5" fill="#f59e0b" opacity="0.92"/>
<text x="590.0" y="224" fill="#08111f" font-size="12" font-family="Inter, Arial" text-anchor="middle" font-weight="700">3/4</text>
<rect x="630" y="203" width="68" height="32" rx="5" fill="#22c55e" opacity="0.92"/>
<text x="664.0" y="224" fill="#08111f" font-size="12" font-family="Inter, Arial" text-anchor="middle" font-weight="700">6/6</text>
<rect x="704" y="203" width="68" height="32" rx="5" fill="#f59e0b" opacity="0.92"/>
<text x="738.0" y="224" fill="#08111f" font-size="12" font-family="Inter, Arial" text-anchor="middle" font-weight="700">4/5</text>
<rect x="778" y="203" width="68" height="32" rx="5" fill="#f59e0b" opacity="0.92"/>
<text x="812.0" y="224" fill="#08111f" font-size="12" font-family="Inter, Arial" text-anchor="middle" font-weight="700">2/3</text>
<rect x="852" y="203" width="68" height="32" rx="5" fill="#22c55e" opacity="0.92"/>
<text x="886.0" y="224" fill="#08111f" font-size="12" font-family="Inter, Arial" text-anchor="middle" font-weight="700">3/3</text>
<rect x="926" y="203" width="68" height="32" rx="5" fill="#ef4444" opacity="0.92"/>
<text x="960.0" y="224" fill="#08111f" font-size="12" font-family="Inter, Arial" text-anchor="middle" font-weight="700">0/3</text>
<text x="14" y="254" fill="#cbd5e1" font-size="12" font-family="Inter, Arial">barto-128k-f16</text>
<rect x="260" y="241" width="68" height="32" rx="5" fill="#22c55e" opacity="0.92"/>
<text x="294.0" y="262" fill="#08111f" font-size="12" font-family="Inter, Arial" text-anchor="middle" font-weight="700">2/2</text>
<rect x="334" y="241" width="68" height="32" rx="5" fill="#22c55e" opacity="0.92"/>
<text x="368.0" y="262" fill="#08111f" font-size="12" font-family="Inter, Arial" text-anchor="middle" font-weight="700">2/2</text>
<rect x="408" y="241" width="68" height="32" rx="5" fill="#22c55e" opacity="0.92"/>
<text x="442.0" y="262" fill="#08111f" font-size="12" font-family="Inter, Arial" text-anchor="middle" font-weight="700">6/6</text>
<rect x="482" y="241" width="68" height="32" rx="5" fill="#22c55e" opacity="0.92"/>
<text x="516.0" y="262" fill="#08111f" font-size="12" font-family="Inter, Arial" text-anchor="middle" font-weight="700">5/5</text>
<rect x="556" y="241" width="68" height="32" rx="5" fill="#f59e0b" opacity="0.92"/>
<text x="590.0" y="262" fill="#08111f" font-size="12" font-family="Inter, Arial" text-anchor="middle" font-weight="700">3/4</text>
<rect x="630" y="241" width="68" height="32" rx="5" fill="#22c55e" opacity="0.92"/>
<text x="664.0" y="262" fill="#08111f" font-size="12" font-family="Inter, Arial" text-anchor="middle" font-weight="700">6/6</text>
<rect x="704" y="241" width="68" height="32" rx="5" fill="#f59e0b" opacity="0.92"/>
<text x="738.0" y="262" fill="#08111f" font-size="12" font-family="Inter, Arial" text-anchor="middle" font-weight="700">4/5</text>
<rect x="778" y="241" width="68" height="32" rx="5" fill="#f59e0b" opacity="0.92"/>
<text x="812.0" y="262" fill="#08111f" font-size="12" font-family="Inter, Arial" text-anchor="middle" font-weight="700">2/3</text>
<rect x="852" y="241" width="68" height="32" rx="5" fill="#22c55e" opacity="0.92"/>
<text x="886.0" y="262" fill="#08111f" font-size="12" font-family="Inter, Arial" text-anchor="middle" font-weight="700">3/3</text>
<rect x="926" y="241" width="68" height="32" rx="5" fill="#22c55e" opacity="0.92"/>
<text x="960.0" y="262" fill="#08111f" font-size="12" font-family="Inter, Arial" text-anchor="middle" font-weight="700">3/3</text>
<text x="14" y="292" fill="#cbd5e1" font-size="12" font-family="Inter, Arial">barto-128k-q8</text>
<rect x="260" y="279" width="68" height="32" rx="5" fill="#22c55e" opacity="0.92"/>
<text x="294.0" y="300" fill="#08111f" font-size="12" font-family="Inter, Arial" text-anchor="middle" font-weight="700">2/2</text>
<rect x="334" y="279" width="68" height="32" rx="5" fill="#22c55e" opacity="0.92"/>
<text x="368.0" y="300" fill="#08111f" font-size="12" font-family="Inter, Arial" text-anchor="middle" font-weight="700">2/2</text>
<rect x="408" y="279" width="68" height="32" rx="5" fill="#22c55e" opacity="0.92"/>
<text x="442.0" y="300" fill="#08111f" font-size="12" font-family="Inter, Arial" text-anchor="middle" font-weight="700">6/6</text>
<rect x="482" y="279" width="68" height="32" rx="5" fill="#22c55e" opacity="0.92"/>
<text x="516.0" y="300" fill="#08111f" font-size="12" font-family="Inter, Arial" text-anchor="middle" font-weight="700">5/5</text>
<rect x="556" y="279" width="68" height="32" rx="5" fill="#f59e0b" opacity="0.92"/>
<text x="590.0" y="300" fill="#08111f" font-size="12" font-family="Inter, Arial" text-anchor="middle" font-weight="700">3/4</text>
<rect x="630" y="279" width="68" height="32" rx="5" fill="#22c55e" opacity="0.92"/>
<text x="664.0" y="300" fill="#08111f" font-size="12" font-family="Inter, Arial" text-anchor="middle" font-weight="700">6/6</text>
<rect x="704" y="279" width="68" height="32" rx="5" fill="#f59e0b" opacity="0.92"/>
<text x="738.0" y="300" fill="#08111f" font-size="12" font-family="Inter, Arial" text-anchor="middle" font-weight="700">4/5</text>
<rect x="778" y="279" width="68" height="32" rx="5" fill="#f59e0b" opacity="0.92"/>
<text x="812.0" y="300" fill="#08111f" font-size="12" font-family="Inter, Arial" text-anchor="middle" font-weight="700">2/3</text>
<rect x="852" y="279" width="68" height="32" rx="5" fill="#22c55e" opacity="0.92"/>
<text x="886.0" y="300" fill="#08111f" font-size="12" font-family="Inter, Arial" text-anchor="middle" font-weight="700">3/3</text>
<rect x="926" y="279" width="68" height="32" rx="5" fill="#22c55e" opacity="0.92"/>
<text x="960.0" y="300" fill="#08111f" font-size="12" font-family="Inter, Arial" text-anchor="middle" font-weight="700">3/3</text>
<text x="14" y="330" fill="#cbd5e1" font-size="12" font-family="Inter, Arial">unsloth-128k-f16</text>
<rect x="260" y="317" width="68" height="32" rx="5" fill="#22c55e" opacity="0.92"/>
<text x="294.0" y="338" fill="#08111f" font-size="12" font-family="Inter, Arial" text-anchor="middle" font-weight="700">2/2</text>
<rect x="334" y="317" width="68" height="32" rx="5" fill="#22c55e" opacity="0.92"/>
<text x="368.0" y="338" fill="#08111f" font-size="12" font-family="Inter, Arial" text-anchor="middle" font-weight="700">2/2</text>
<rect x="408" y="317" width="68" height="32" rx="5" fill="#22c55e" opacity="0.92"/>
<text x="442.0" y="338" fill="#08111f" font-size="12" font-family="Inter, Arial" text-anchor="middle" font-weight="700">6/6</text>
<rect x="482" y="317" width="68" height="32" rx="5" fill="#22c55e" opacity="0.92"/>
<text x="516.0" y="338" fill="#08111f" font-size="12" font-family="Inter, Arial" text-anchor="middle" font-weight="700">5/5</text>
<rect x="556" y="317" width="68" height="32" rx="5" fill="#f59e0b" opacity="0.92"/>
<text x="590.0" y="338" fill="#08111f" font-size="12" font-family="Inter, Arial" text-anchor="middle" font-weight="700">3/4</text>
<rect x="630" y="317" width="68" height="32" rx="5" fill="#22c55e" opacity="0.92"/>
<text x="664.0" y="338" fill="#08111f" font-size="12" font-family="Inter, Arial" text-anchor="middle" font-weight="700">6/6</text>
<rect x="704" y="317" width="68" height="32" rx="5" fill="#f59e0b" opacity="0.92"/>
<text x="738.0" y="338" fill="#08111f" font-size="12" font-family="Inter, Arial" text-anchor="middle" font-weight="700">4/5</text>
<rect x="778" y="317" width="68" height="32" rx="5" fill="#f59e0b" opacity="0.92"/>
<text x="812.0" y="338" fill="#08111f" font-size="12" font-family="Inter, Arial" text-anchor="middle" font-weight="700">2/3</text>
<rect x="852" y="317" width="68" height="32" rx="5" fill="#ef4444" opacity="0.92"/>
<text x="886.0" y="338" fill="#08111f" font-size="12" font-family="Inter, Arial" text-anchor="middle" font-weight="700">0/3</text>
<rect x="926" y="317" width="68" height="32" rx="5" fill="#ef4444" opacity="0.92"/>
<text x="960.0" y="338" fill="#08111f" font-size="12" font-family="Inter, Arial" text-anchor="middle" font-weight="700">0/3</text>
<text x="14" y="368" fill="#cbd5e1" font-size="12" font-family="Inter, Arial">unsloth-128k-q8</text>
<rect x="260" y="355" width="68" height="32" rx="5" fill="#22c55e" opacity="0.92"/>
<text x="294.0" y="376" fill="#08111f" font-size="12" font-family="Inter, Arial" text-anchor="middle" font-weight="700">2/2</text>
<rect x="334" y="355" width="68" height="32" rx="5" fill="#22c55e" opacity="0.92"/>
<text x="368.0" y="376" fill="#08111f" font-size="12" font-family="Inter, Arial" text-anchor="middle" font-weight="700">2/2</text>
<rect x="408" y="355" width="68" height="32" rx="5" fill="#22c55e" opacity="0.92"/>
<text x="442.0" y="376" fill="#08111f" font-size="12" font-family="Inter, Arial" text-anchor="middle" font-weight="700">6/6</text>
<rect x="482" y="355" width="68" height="32" rx="5" fill="#22c55e" opacity="0.92"/>
<text x="516.0" y="376" fill="#08111f" font-size="12" font-family="Inter, Arial" text-anchor="middle" font-weight="700">5/5</text>
<rect x="556" y="355" width="68" height="32" rx="5" fill="#f59e0b" opacity="0.92"/>
<text x="590.0" y="376" fill="#08111f" font-size="12" font-family="Inter, Arial" text-anchor="middle" font-weight="700">3/4</text>
<rect x="630" y="355" width="68" height="32" rx="5" fill="#22c55e" opacity="0.92"/>
<text x="664.0" y="376" fill="#08111f" font-size="12" font-family="Inter, Arial" text-anchor="middle" font-weight="700">6/6</text>
<rect x="704" y="355" width="68" height="32" rx="5" fill="#f59e0b" opacity="0.92"/>
<text x="738.0" y="376" fill="#08111f" font-size="12" font-family="Inter, Arial" text-anchor="middle" font-weight="700">4/5</text>
<rect x="778" y="355" width="68" height="32" rx="5" fill="#f59e0b" opacity="0.92"/>
<text x="812.0" y="376" fill="#08111f" font-size="12" font-family="Inter, Arial" text-anchor="middle" font-weight="700">2/3</text>
<rect x="852" y="355" width="68" height="32" rx="5" fill="#22c55e" opacity="0.92"/>
<text x="886.0" y="376" fill="#08111f" font-size="12" font-family="Inter, Arial" text-anchor="middle" font-weight="700">3/3</text>
<rect x="926" y="355" width="68" height="32" rx="5" fill="#22c55e" opacity="0.92"/>
<text x="960.0" y="376" fill="#08111f" font-size="12" font-family="Inter, Arial" text-anchor="middle" font-weight="700">3/3</text>
</svg>